<svg width="104" height="19" viewBox="0 0 104 19" fill="none" xmlns="http://www.w3.org/2000/svg">
<path d="M0.00219727 13.3328H2.27811V3.7082H0.00219727V13.3328Z" fill="white"/>
<path d="M3.73324 13.3328H6.00915V7.48033C6.00915 6.29606 6.80132 5.49401 7.7821 5.49401C8.74401 5.49401 9.40415 6.13941 9.40415 7.12944V13.3328H11.6361V7.32995C11.6361 6.24593 12.2836 5.49401 13.3838 5.49401C14.3018 5.49401 15.0311 6.03289 15.0311 7.22343V13.3328H17.3132V6.87253C17.3132 4.72329 16.0684 3.58288 14.2955 3.58288C12.8935 3.58288 11.8247 4.27214 11.3971 5.34363H11.2966C10.9256 4.25334 9.98885 3.58288 8.68743 3.58288C7.3923 3.58288 6.42409 4.24707 6.02172 5.34363H5.90856V3.7082H3.73324V13.3328Z" fill="white"/>
<path d="M45.985 9.28495C45.985 10.7512 44.935 11.4781 43.9291 11.4781C42.8352 11.4781 42.1059 10.7073 42.1059 9.48546V3.7082H39.83V9.83636C39.83 12.1485 41.1502 13.4581 43.0489 13.4581C44.4949 13.4581 45.5134 12.6999 45.9535 11.6222H46.0541V13.3328H48.2609V3.7082H45.985V9.28495Z" fill="white"/>
<path d="M51.9919 0.5H49.716V13.3328H51.9919V0.5Z" fill="white"/>
<path d="M61.0795 6.2522C60.7652 4.62303 59.4575 3.58288 57.1941 3.58288C54.8679 3.58288 53.2836 4.72329 53.2899 6.50284C53.2836 7.90642 54.1512 8.83379 56.0059 9.21602L57.6531 9.56065C58.5396 9.7549 58.9545 10.1121 58.9545 10.6572C58.9545 11.3151 58.2378 11.8101 57.1564 11.8101C56.1128 11.8101 55.4338 11.359 55.2389 10.4943L53.0195 10.7073C53.3025 12.4743 54.7925 13.5208 57.1627 13.5208C59.5769 13.5208 61.2807 12.2738 61.287 10.4504C61.2807 9.07817 60.3942 8.23852 58.571 7.84376L56.9238 7.49287C55.943 7.27356 55.5532 6.93519 55.5595 6.37752C55.5532 5.72585 56.2762 5.2747 57.2256 5.2747C58.2755 5.2747 58.8288 5.84491 59.0048 6.47777L61.0795 6.2522Z" fill="white"/>
<path fill-rule="evenodd" clip-rule="evenodd" d="M67.0692 11.5285C68.6843 11.5285 69.9936 10.2236 69.9936 8.61386C69.9936 7.00415 68.6843 5.69922 67.0692 5.69922C65.4541 5.69922 64.1448 7.00415 64.1448 8.61386C64.1448 10.2236 65.4541 11.5285 67.0692 11.5285ZM67.0692 13.6104C69.838 13.6104 72.0825 11.3734 72.0825 8.61386C72.0825 5.85436 69.838 3.61734 67.0692 3.61734C64.3004 3.61734 62.0559 5.85436 62.0559 8.61386C62.0559 11.3734 64.3004 13.6104 67.0692 13.6104Z" fill="white"/>
<path d="M20.7734 3.67787H18.7101V16.5275H20.7734V3.67787Z" fill="white"/>
<path d="M36.5657 8.65192C36.5657 10.2544 35.2724 11.5535 33.677 11.5535V13.626C36.4119 13.626 38.6291 11.399 38.6291 8.65192C38.6291 5.90483 36.4119 3.67787 33.677 3.67787V5.75039C35.2724 5.75039 36.5657 7.04945 36.5657 8.65192Z" fill="white"/>
<path d="M31.6136 8.65192C31.6136 10.2544 30.3203 11.5535 28.7249 11.5535V13.626C31.4599 13.626 33.677 11.399 33.677 8.65192C33.677 5.90483 31.4599 3.67787 28.7249 3.67787V5.75039C30.3203 5.75039 31.6136 7.04945 31.6136 8.65192Z" fill="white"/>
<path d="M26.5508 8.65192C26.5508 10.2544 25.2575 11.5535 23.6621 11.5535V13.626C26.3971 13.626 28.6142 11.399 28.6142 8.65192C28.6142 5.90483 26.3971 3.67787 23.6621 3.67787V5.75039C25.2575 5.75039 26.5508 7.04945 26.5508 8.65192Z" fill="white"/>
<path d="M20.7734 8.65192C20.7734 10.2544 22.0667 11.5535 23.6621 11.5535V13.626C20.9272 13.626 18.7101 11.399 18.7101 8.65192C18.7101 5.90483 20.9272 3.67787 23.6621 3.67787V5.75039C22.0667 5.75039 20.7734 7.04945 20.7734 8.65192Z" fill="white"/>
<path fill-rule="evenodd" clip-rule="evenodd" d="M89.1238 11.5619C90.7067 11.5619 91.9899 10.2573 91.9899 8.64794C91.9899 7.03859 90.7067 5.73396 89.1238 5.73396C87.5409 5.73396 86.2577 7.03859 86.2577 8.64794C86.2577 10.2573 87.5409 11.5619 89.1238 11.5619ZM89.1238 13.6433C91.8373 13.6433 94.037 11.4068 94.037 8.64794C94.037 5.88906 91.8373 3.65255 89.1238 3.65255C86.4103 3.65255 84.2105 5.88906 84.2105 8.64794C84.2105 11.4068 86.4103 13.6433 89.1238 13.6433Z" fill="white"/>
<path d="M80.9065 3.65255H82.9537V13.6433H80.9065V3.65255Z" fill="white"/>
<path fill-rule="evenodd" clip-rule="evenodd" d="M78.0405 11.5619C79.6233 11.5619 80.9065 10.2573 80.9065 8.64794C80.9065 7.03859 79.6233 5.73396 78.0405 5.73396C76.4576 5.73396 75.1744 7.03859 75.1744 8.64794C75.1744 10.2573 76.4576 11.5619 78.0405 11.5619ZM78.0405 13.6433C80.754 13.6433 82.9537 11.4068 82.9537 8.64794C82.9537 5.88906 80.754 3.65255 78.0405 3.65255C75.3269 3.65255 73.1272 5.88906 73.1272 8.64794C73.1272 11.4068 75.3269 13.6433 78.0405 13.6433Z" fill="white"/>
<path d="M75.1776 13.6433C75.2488 15.1882 76.5033 16.4185 78.0405 16.4185C79.5776 16.4185 80.8321 15.1882 80.9033 13.6433H82.9519C82.8796 16.338 80.7083 18.5 78.0405 18.5C75.3726 18.5 73.2013 16.338 73.1291 13.6433H75.1776Z" fill="white"/>
<path d="M101.95 3.52344H104L100.029 13.5939H97.9792L101.95 3.52344Z" fill="white"/>
<path d="M94.008 3.52344H96.0577L100.029 13.5939H97.9792L94.008 3.52344Z" fill="white"/>
</svg>
