<svg width="139" height="28" viewBox="0 0 139 28" fill="none" xmlns="http://www.w3.org/2000/svg">
<path d="M17.0305 23.3682C19.2887 23.3682 21.4544 22.4711 23.0512 20.8743C24.648 19.2775 25.5451 17.1118 25.5451 14.8535C25.5451 12.5953 24.648 10.4296 23.0512 8.83277C21.4544 7.23597 19.2887 6.33887 17.0305 6.33887V10.544C18.1735 10.544 19.2696 10.9981 20.0778 11.8063C20.886 12.6145 21.3401 13.7106 21.3401 14.8535C21.3401 15.9965 20.886 17.0926 20.0778 17.9008C19.2696 18.709 18.1735 19.163 17.0305 19.163V23.3682Z" fill="#55D499"/>
<path d="M25.5466 23.3682C27.8048 23.3682 29.9706 22.4711 31.5674 20.8743C33.1642 19.2775 34.0613 17.1118 34.0613 14.8535C34.0613 12.5953 33.1642 10.4296 31.5674 8.83277C29.9706 7.23597 27.8048 6.33887 25.5466 6.33887V10.544C26.6896 10.544 27.7857 10.9981 28.5939 11.8063C29.4021 12.6145 29.8562 13.7106 29.8562 14.8535C29.8562 15.9965 29.4021 17.0926 28.5939 17.9008C27.7857 18.709 26.6896 19.163 25.5466 19.163V23.3682Z" fill="#55D499"/>
<path d="M8.51462 6.33887C6.83059 6.33887 5.18436 6.83823 3.78414 7.77383C2.38391 8.70942 1.29258 10.0392 0.648131 11.5951C0.00367884 13.1509 -0.164925 14.863 0.163614 16.5147C0.492152 18.1664 1.30306 19.6835 2.49386 20.8743C3.68465 22.0651 5.20183 22.8761 6.8535 23.2046C8.50518 23.5332 10.2172 23.3645 11.773 22.7201C13.3289 22.0756 14.6587 20.9843 15.5943 19.5841C16.5299 18.1838 17.0293 16.5376 17.0293 14.8535C17.0293 12.5953 16.1322 10.4296 14.5354 8.83277C12.9386 7.23597 10.7728 6.33887 8.51462 6.33887ZM8.51462 19.163C7.66227 19.163 6.82907 18.9104 6.12037 18.4368C5.41167 17.9633 4.8593 17.2903 4.53312 16.5028C4.20694 15.7153 4.12158 14.8487 4.28786 14.0128C4.45415 13.1768 4.86458 12.409 5.46729 11.8063C6.06999 11.2036 6.83791 10.793 7.67388 10.6267C8.50985 10.4605 9.37637 10.5458 10.1638 10.872C10.9513 11.1981 11.6243 11.7505 12.0979 12.4592C12.5714 13.1679 12.8242 14.0012 12.8242 14.8535C12.8242 15.9965 12.3702 17.0926 11.562 17.9008C10.7538 18.709 9.65759 19.163 8.51462 19.163Z" fill="#55D499"/>
<path d="M48.5064 28V20.5758C49.2694 21.697 50.8871 22.6061 53.0236 22.6061C57.2966 22.6061 60.013 19.2727 60.013 14.8485C60.013 10.4848 57.5407 7.15151 53.1457 7.15151C50.8566 7.15151 49.1474 8.21212 48.4148 9.48485V7.48485H44.9965V28H48.5064ZM56.4725 14.8485C56.4725 17.6667 54.8243 19.4848 52.4742 19.4848C50.1546 19.4848 48.4759 17.6667 48.4759 14.8485C48.4759 12.0909 50.1546 10.2727 52.4742 10.2727C54.8549 10.2727 56.4725 12.0909 56.4725 14.8485Z" fill="white"/>
<path d="M70.8943 7.39394C70.7417 7.36364 70.3754 7.30303 69.9481 7.30303C67.9948 7.30303 66.3466 8.24242 65.6446 9.84848V7.48485H62.1957V22.2424H65.7362V15.2121C65.7362 12.4545 66.9876 10.8788 69.7345 10.8788C70.1007 10.8788 70.4975 10.9091 70.8943 10.9697V7.39394Z" fill="white"/>
<path d="M74.9522 13.2424C75.0743 11.6667 76.3562 9.9697 78.5842 9.9697C81.0259 9.9697 82.1858 11.5152 82.2468 13.2424H74.9522ZM82.6436 17.0909C82.1552 18.5455 81.0565 19.6667 78.92 19.6667C76.7224 19.6667 74.9522 18.0606 74.8606 15.8182H85.7262C85.7568 15.7576 85.8178 15.2727 85.8178 14.697C85.8178 10.0303 83.1319 7.0303 78.5537 7.0303C74.7996 7.0303 71.3202 10.1212 71.3202 14.7879C71.3202 19.7879 74.8912 22.697 78.92 22.697C82.491 22.697 84.8411 20.6061 85.6347 18.0303L82.6436 17.0909Z" fill="white"/>
<path d="M101.112 7.48485H97.388L93.5423 18.0303L89.6051 7.48485H85.6983L91.7416 22.2424H95.282L101.112 7.48485Z" fill="white"/>
<path d="M106.007 22.2424V7.48485H102.497V22.2424H106.007ZM101.948 2.30303C101.948 3.57576 102.985 4.57576 104.237 4.57576C105.519 4.57576 106.556 3.57576 106.556 2.30303C106.556 1.0303 105.519 0 104.237 0C102.985 0 101.948 1.0303 101.948 2.30303Z" fill="white"/>
<path d="M112.894 13.7273C112.894 11.7879 113.962 10.2424 115.977 10.2424C118.205 10.2424 119.029 11.697 119.029 13.5152V22.2424H122.569V12.9091C122.569 9.66667 120.83 7.0606 117.198 7.0606C115.549 7.0606 113.779 7.75758 112.802 9.45455V7.48485H109.354V22.2424H112.894V13.7273Z" fill="white"/>
<path d="M128.131 13.2424C128.253 11.6667 129.535 9.9697 131.763 9.9697C134.205 9.9697 135.364 11.5152 135.425 13.2424H128.131ZM135.822 17.0909C135.334 18.5455 134.235 19.6667 132.099 19.6667C129.901 19.6667 128.131 18.0606 128.039 15.8182H138.905C138.935 15.7576 138.996 15.2727 138.996 14.697C138.996 10.0303 136.311 7.0303 131.732 7.0303C127.978 7.0303 124.499 10.1212 124.499 14.7879C124.499 19.7879 128.07 22.697 132.099 22.697C135.67 22.697 138.02 20.6061 138.813 18.0303L135.822 17.0909Z" fill="white"/>
</svg>
