<svg width="20" height="20" viewBox="0 0 20 20" fill="none" xmlns="http://www.w3.org/2000/svg">
<path d="M18.47 0.000139831H1.53C1.33958 -0.00250479 1.1505 0.0323873 0.973563 0.102824C0.796628 0.17326 0.635301 0.27786 0.498795 0.410652C0.362289 0.543443 0.253279 0.701824 0.177989 0.876749C0.1027 1.05167 0.062606 1.23972 0.0599976 1.43014V18.5701C0.062606 18.7606 0.1027 18.9486 0.177989 19.1235C0.253279 19.2985 0.362289 19.4568 0.498795 19.5896C0.635301 19.7224 0.796628 19.827 0.973563 19.8975C1.1505 19.9679 1.33958 20.0028 1.53 20.0001H18.47C18.6604 20.0028 18.8495 19.9679 19.0264 19.8975C19.2034 19.827 19.3647 19.7224 19.5012 19.5896C19.6377 19.4568 19.7467 19.2985 19.822 19.1235C19.8973 18.9486 19.9374 18.7606 19.94 18.5701V1.43014C19.9374 1.23972 19.8973 1.05167 19.822 0.876749C19.7467 0.701824 19.6377 0.543443 19.5012 0.410652C19.3647 0.27786 19.2034 0.17326 19.0264 0.102824C18.8495 0.0323873 18.6604 -0.00250479 18.47 0.000139831V0.000139831ZM6.09 16.7401H3.09V7.74014H6.09V16.7401ZM4.59 6.48014C4.17626 6.48014 3.77947 6.31578 3.48691 6.02323C3.19435 5.73067 3.03 5.33388 3.03 4.92014C3.03 4.5064 3.19435 4.10961 3.48691 3.81705C3.77947 3.5245 4.17626 3.36014 4.59 3.36014C4.80969 3.33522 5.03217 3.35699 5.24287 3.42402C5.45357 3.49105 5.64774 3.60183 5.81265 3.7491C5.97757 3.89637 6.10952 4.07682 6.19987 4.27862C6.29021 4.48043 6.33692 4.69904 6.33692 4.92014C6.33692 5.14124 6.29021 5.35985 6.19987 5.56166C6.10952 5.76346 5.97757 5.94391 5.81265 6.09118C5.64774 6.23845 5.45357 6.34923 5.24287 6.41626C5.03217 6.48329 4.80969 6.50505 4.59 6.48014V6.48014ZM16.91 16.7401H13.91V11.9101C13.91 10.7001 13.48 9.91014 12.39 9.91014C12.0527 9.91261 11.7242 10.0184 11.4488 10.2133C11.1735 10.4082 10.9645 10.6828 10.85 11.0001C10.7717 11.2352 10.7378 11.4827 10.75 11.7301V16.7301H7.75C7.75 16.7301 7.75 8.55014 7.75 7.73014H10.75V9.00014C11.0225 8.52725 11.4189 8.13766 11.8964 7.87334C12.374 7.60902 12.9146 7.47999 13.46 7.50014C15.46 7.50014 16.91 8.79014 16.91 11.5601V16.7401Z" fill="#FFFFFF"/>
</svg>
