<svg xmlns="http://www.w3.org/2000/svg" width="20" height="20" viewBox="0 0 20 20" fill="none">
  <g clip-path="url(#clip0_651_2088)">
    <path d="M18.75 10C18.75 7.67936 17.8281 5.45376 16.1872 3.81282C14.5462 2.17187 12.3206 1.25 10 1.25C7.67936 1.25 5.45376 2.17187 3.81282 3.81282C2.17187 5.45376 1.25 7.67936 1.25 10C1.25 12.3206 2.17187 14.5462 3.81282 16.1872C5.45376 17.8281 7.67936 18.75 10 18.75C12.3206 18.75 14.5462 17.8281 16.1872 16.1872C17.8281 14.5462 18.75 12.3206 18.75 10ZM0 10C0 7.34784 1.05357 4.8043 2.92893 2.92893C4.8043 1.05357 7.34784 0 10 0C12.6522 0 15.1957 1.05357 17.0711 2.92893C18.9464 4.8043 20 7.34784 20 10C20 12.6522 18.9464 15.1957 17.0711 17.0711C15.1957 18.9464 12.6522 20 10 20C7.34784 20 4.8043 18.9464 2.92893 17.0711C1.05357 15.1957 0 12.6522 0 10ZM6.58984 6.63281C6.84375 5.67188 7.71094 5 8.70703 5H10.9375C12.3242 5 13.4375 6.13281 13.4375 7.51172C13.4375 8.44922 12.9141 9.31641 12.0742 9.74609L10.625 10.4805V11.25C10.625 11.5938 10.3438 11.875 10 11.875C9.65625 11.875 9.375 11.5938 9.375 11.25V10.0977C9.375 9.86328 9.50781 9.64844 9.71484 9.53906L11.5039 8.625C11.9219 8.41406 12.1875 7.97656 12.1875 7.50391C12.1875 6.80859 11.625 6.24219 10.9375 6.24219H8.70703C8.28125 6.24219 7.90625 6.53125 7.80078 6.94141L7.79297 6.96875C7.70703 7.30078 7.36328 7.50391 7.03125 7.41406C6.69922 7.32422 6.49609 6.98438 6.58594 6.65234L6.59375 6.625L6.58984 6.63281ZM9.0625 13.75C9.0625 13.5014 9.16127 13.2629 9.33709 13.0871C9.5129 12.9113 9.75136 12.8125 10 12.8125C10.2486 12.8125 10.4871 12.9113 10.6629 13.0871C10.8387 13.2629 10.9375 13.5014 10.9375 13.75C10.9375 13.9986 10.8387 14.2371 10.6629 14.4129C10.4871 14.5887 10.2486 14.6875 10 14.6875C9.75136 14.6875 9.5129 14.5887 9.33709 14.4129C9.16127 14.2371 9.0625 13.9986 9.0625 13.75Z" fill="black"/>
  </g>
  <defs>
    <clipPath id="clip0_651_2088">
      <rect width="20" height="20" fill="white"/>
    </clipPath>
  </defs>
</svg>