<svg width="64" height="32" viewBox="0 0 64 32" fill="none" xmlns="http://www.w3.org/2000/svg">
<path d="M32 31.9989C36.2433 31.9989 40.3128 30.3132 43.3132 27.3127C46.3137 24.3123 47.9994 20.2427 47.9994 15.9995C47.9994 11.7562 46.3137 7.68662 43.3132 4.68615C40.3128 1.68569 36.2433 0 32 0V7.90167C34.1477 7.90167 36.2074 8.75487 37.726 10.2735C39.2447 11.7922 40.0978 13.8518 40.0978 15.9995C40.0978 18.1471 39.2447 20.2067 37.726 21.7254C36.2074 23.244 34.1477 24.0972 32 24.0972V31.9989Z" fill="#2EA6BC"/>
<path d="M48 31.9989C52.2433 31.9989 56.3128 30.3132 59.3132 27.3127C62.3137 24.3123 63.9994 20.2427 63.9994 15.9995C63.9994 11.7562 62.3137 7.68662 59.3132 4.68615C56.3128 1.68569 52.2433 0 48 0V7.90167C50.1477 7.90167 52.2074 8.75487 53.726 10.2735C55.2447 11.7922 56.0978 13.8518 56.0978 15.9995C56.0978 18.1471 55.2447 20.2067 53.726 21.7254C52.2074 23.244 50.1477 24.0972 48 24.0972V31.9989Z" fill="#2EA6BC"/>
<path d="M15.9994 6.10352e-05C12.835 6.10352e-05 9.74165 0.938381 7.11057 2.69641C4.47948 4.45445 2.42882 6.95321 1.21787 9.87672C0.00691271 12.8002 -0.309902 16.0173 0.307437 19.1209C0.924776 22.2245 2.44852 25.0753 4.68607 27.3128C6.92362 29.5504 9.77448 31.0742 12.878 31.6916C15.9816 32.3089 19.1986 31.992 22.1221 30.7811C25.0456 29.5701 27.5444 27.5195 29.3024 24.8884C31.0604 22.2573 31.9987 19.1639 31.9987 15.9995C31.9987 11.7562 30.3131 7.68668 27.3127 4.68621C24.3122 1.68575 20.2427 6.10352e-05 15.9994 6.10352e-05ZM15.9994 24.0973C14.3978 24.0973 12.8321 23.6225 11.5005 22.7327C10.1688 21.8429 9.13085 20.5782 8.51794 19.0985C7.90503 17.6188 7.74464 15.9905 8.05709 14.4196C8.36955 12.8488 9.14078 11.4061 10.2733 10.2736C11.4058 9.14107 12.8487 8.36962 14.4196 8.05716C15.9904 7.74471 17.6186 7.90503 19.0983 8.51794C20.578 9.13084 21.8427 10.1688 22.7325 11.5005C23.6223 12.8321 24.0972 14.3979 24.0972 15.9995C24.0972 18.1472 23.2441 20.2068 21.7255 21.7254C20.2068 23.2441 18.1471 24.0973 15.9994 24.0973Z" fill="#2EA6BC"/>
</svg>
